REM DIRINDEX 1\2\6,1\2\7,1\2\8,1\3\9,1\3\10,1\3\11,1\4\12,1\4\13,1\4\14,1\5\15,1\5\16,1\5\17,1\5\18
REM DIRNAME folder01,folder02,folder03,folder04,folder05,folder06,folder07,folder08,folder09,folder10,folder11,folder12,folder13,folder14,folder15,folder16,folder17,folder18
TITLE ""
FILE "2Q_j_1569-1582.mp3" MP3
  TRACK 01 AUDIO
    TITLE "6:cjc019_1170"
    INDEX 01 00:00:00
  TRACK 02 AUDIO
    TITLE "0:"
    INDEX 01 00:01:44
  TRACK 03 AUDIO
    TITLE "7:cjc019_1171"
    INDEX 01 00:02:30
  TRACK 04 AUDIO
    TITLE "0:"
    INDEX 01 00:04:13
  TRACK 05 AUDIO
    TITLE "8:cjc019_1172"
    INDEX 01 00:04:62
  TRACK 06 AUDIO
    TITLE "0:"
    INDEX 01 00:10:21
  TRACK 07 AUDIO
    TITLE "6:cjc019_1173"
    INDEX 01 00:10:74
  TRACK 08 AUDIO
    TITLE "0:"
    INDEX 01 00:12:26
  TRACK 09 AUDIO
    TITLE "7:cjc019_1174"
    INDEX 01 00:13:16
  TRACK 10 AUDIO
    TITLE "0:"
    INDEX 01 00:16:44
  TRACK 11 AUDIO
    TITLE "8:cjc019_1175"
    INDEX 01 00:17:23
  TRACK 12 AUDIO
    TITLE "0:"
    INDEX 01 00:20:16
  TRACK 13 AUDIO
    TITLE "6:cjc019_1176"
    INDEX 01 00:20:73
  TRACK 14 AUDIO
    TITLE "0:"
    INDEX 01 00:22:38
  TRACK 15 AUDIO
    TITLE "7:cjc019_1177"
    INDEX 01 00:23:20
  TRACK 16 AUDIO
    TITLE "0:"
    INDEX 01 00:26:07
  TRACK 17 AUDIO
    TITLE "8:cjc019_1178"
    INDEX 01 00:26:64
  TRACK 18 AUDIO
    TITLE "0:"
    INDEX 01 00:30:03
  TRACK 19 AUDIO
    TITLE "6:cjc019_1179"
    INDEX 01 00:30:67
  TRACK 20 AUDIO
    TITLE "0:"
    INDEX 01 00:32:23
  TRACK 21 AUDIO
    TITLE "7:cjc019_1180"
    INDEX 01 00:33:07
  TRACK 22 AUDIO
    TITLE "0:"
    INDEX 01 00:34:71
  TRACK 23 AUDIO
    TITLE "8:cjc019_1181"
    INDEX 01 00:35:49
  TRACK 24 AUDIO
    TITLE "0:"
    INDEX 01 00:40:54
  TRACK 25 AUDIO
    TITLE "6:cjc019_1182"
    INDEX 01 00:41:36
  TRACK 26 AUDIO
    TITLE "0:"
    INDEX 01 00:42:53
  TRACK 27 AUDIO
    TITLE "7:cjc019_1183"
    INDEX 01 00:43:37
  TRACK 28 AUDIO
    TITLE "0:"
    INDEX 01 00:48:49
  TRACK 29 AUDIO
    TITLE "8:cjc019_1184"
    INDEX 01 00:49:27
  TRACK 30 AUDIO
    TITLE "0:"
    INDEX 01 00:54:64
  TRACK 31 AUDIO
    TITLE "6:cjc019_1185"
    INDEX 01 00:55:50
  TRACK 32 AUDIO
    TITLE "0:"
    INDEX 01 00:57:37
  TRACK 33 AUDIO
    TITLE "7:cjc019_1186"
    INDEX 01 00:58:15
  TRACK 34 AUDIO
    TITLE "0:"
    INDEX 01 01:00:00
  TRACK 35 AUDIO
    TITLE "8:cjc019_1187"
    INDEX 01 01:00:55
  TRACK 36 AUDIO
    TITLE "0:"
    INDEX 01 01:07:10
  TRACK 37 AUDIO
    TITLE "6:cjc019_1188"
    INDEX 01 01:07:70
  TRACK 38 AUDIO
    TITLE "0:"
    INDEX 01 01:09:42
  TRACK 39 AUDIO
    TITLE "7:cjc019_1189"
    INDEX 01 01:10:30
  TRACK 40 AUDIO
    TITLE "0:"
    INDEX 01 01:13:38
  TRACK 41 AUDIO
    TITLE "8:cjc019_1190"
    INDEX 01 01:14:16
  TRACK 42 AUDIO
    TITLE "0:"
    INDEX 01 01:16:61
  TRACK 43 AUDIO
    TITLE "6:cjc019_1191"
    INDEX 01 01:17:45
  TRACK 44 AUDIO
    TITLE "0:"
    INDEX 01 01:19:05
  TRACK 45 AUDIO
    TITLE "7:cjc019_1192"
    INDEX 01 01:19:70
  TRACK 46 AUDIO
    TITLE "0:"
    INDEX 01 01:24:20
  TRACK 47 AUDIO
    TITLE "8:cjc019_1193"
    INDEX 01 01:24:71
  TRACK 48 AUDIO
    TITLE "0:"
    INDEX 01 01:29:68
  TRACK 49 AUDIO
    TITLE "6:cjc019_1194"
    INDEX 01 01:30:48
  TRACK 50 AUDIO
    TITLE "0:"
    INDEX 01 01:32:15
  TRACK 51 AUDIO
    TITLE "7:cjc019_1195"
    INDEX 01 01:32:70
  TRACK 52 AUDIO
    TITLE "0:"
    INDEX 01 01:37:01
  TRACK 53 AUDIO
    TITLE "8:cjc019_1196"
    INDEX 01 01:37:52
  TRACK 54 AUDIO
    TITLE "0:"
    INDEX 01 01:43:25
  TRACK 55 AUDIO
    TITLE "6:cjc019_1197"
    INDEX 01 01:44:11
  TRACK 56 AUDIO
    TITLE "0:"
    INDEX 01 01:45:40
  TRACK 57 AUDIO
    TITLE "7:cjc019_1198"
    INDEX 01 01:46:23
  TRACK 58 AUDIO
    TITLE "0:"
    INDEX 01 01:49:24
  TRACK 59 AUDIO
    TITLE "8:cjc019_1199"
    INDEX 01 01:50:07
  TRACK 60 AUDIO
    TITLE "0:"
    INDEX 01 01:52:59
  TRACK 61 AUDIO
    TITLE "6:cjc019_1200"
    INDEX 01 01:53:43
  TRACK 62 AUDIO
    TITLE "0:"
    INDEX 01 01:55:54
  TRACK 63 AUDIO
    TITLE "7:cjc019_1201"
    INDEX 01 01:56:43
  TRACK 64 AUDIO
    TITLE "0:"
    INDEX 01 01:58:30
  TRACK 65 AUDIO
    TITLE "8:cjc019_1202"
    INDEX 01 01:59:08
  TRACK 66 AUDIO
    TITLE "0:"
    INDEX 01 02:00:72
  TRACK 67 AUDIO
    TITLE "6:cjc019_1203"
    INDEX 01 02:01:52
  TRACK 68 AUDIO
    TITLE "0:"
    INDEX 01 02:03:47
  TRACK 69 AUDIO
    TITLE "7:cjc019_1204"
    INDEX 01 02:04:33
  TRACK 70 AUDIO
    TITLE "0:"
    INDEX 01 02:05:74
  TRACK 71 AUDIO
    TITLE "8:cjc019_1205"
    INDEX 01 02:06:55
  TRACK 72 AUDIO
    TITLE "0:"
    INDEX 01 02:10:51
  TRACK 73 AUDIO
    TITLE "6:cjc019_1206"
    INDEX 01 02:11:33
  TRACK 74 AUDIO
    TITLE "0:"
    INDEX 01 02:13:28
  TRACK 75 AUDIO
    TITLE "7:cjc019_1207"
    INDEX 01 02:14:08
  TRACK 76 AUDIO
    TITLE "0:"
    INDEX 01 02:15:58
  TRACK 77 AUDIO
    TITLE "8:cjc019_1208"
    INDEX 01 02:16:36
  TRACK 78 AUDIO
    TITLE "0:"
    INDEX 01 02:21:12
  TRACK 79 AUDIO
    TITLE "6:cjc019_1209"
    INDEX 01 02:21:67
  TRACK 80 AUDIO
    TITLE "0:"
    INDEX 01 02:23:54
  TRACK 81 AUDIO
    TITLE "7:cjc019_1210"
    INDEX 01 02:24:42
  TRACK 82 AUDIO
    TITLE "0:"
    INDEX 01 02:27:22
  TRACK 83 AUDIO
    TITLE "8:cjc019_1211"
    INDEX 01 02:28:06
  TRACK 84 AUDIO
    TITLE "0:"
    INDEX 01 02:31:55
